<?xml version="1.0" encoding="UTF-8" standalone="no"?>
<!-- Generator: Adobe Illustrator 16.0.4, SVG Export Plug-In . SVG Version: 6.00 Build 0)  -->

<svg
   xmlns:dc="http://purl.org/dc/elements/1.1/"
   xmlns:cc="http://creativecommons.org/ns#"
   xmlns:rdf="http://www.w3.org/1999/02/22-rdf-syntax-ns#"
   xmlns:svg="http://www.w3.org/2000/svg"
   xmlns="http://www.w3.org/2000/svg"
   xmlns:sodipodi="http://sodipodi.sourceforge.net/DTD/sodipodi-0.dtd"
   xmlns:inkscape="http://www.inkscape.org/namespaces/inkscape"
   version="1.1"
   id="Layer_1"
   x="0px"
   y="0px"
   width="64"
   height="64"
   viewBox="0 0 64 64"
   enable-background="new 0 0 50 50"
   xml:space="preserve"
   inkscape:version="0.48.3.1 r9886"
   sodipodi:docname="ic_action_cylinder.svg"
   inkscape:export-filename="/home/kralf/git/github/naro/android/res/drawable/ic_action_cylinder_2.png"
   inkscape:export-xdpi="90"
   inkscape:export-ydpi="90"><metadata
   id="metadata9"><rdf:RDF><cc:Work
       rdf:about=""><dc:format>image/svg+xml</dc:format><dc:type
         rdf:resource="http://purl.org/dc/dcmitype/StillImage" /><dc:title /></cc:Work></rdf:RDF></metadata><defs
   id="defs7" /><sodipodi:namedview
   pagecolor="#ffffff"
   bordercolor="#666666"
   borderopacity="1"
   objecttolerance="10"
   gridtolerance="10"
   guidetolerance="10"
   inkscape:pageopacity="0"
   inkscape:pageshadow="2"
   inkscape:window-width="1920"
   inkscape:window-height="1125"
   id="namedview5"
   showgrid="false"
   inkscape:zoom="8"
   inkscape:cx="5.29143"
   inkscape:cy="38.139418"
   inkscape:window-x="-2"
   inkscape:window-y="-3"
   inkscape:window-maximized="1"
   inkscape:current-layer="Layer_1"
   fit-margin-top="2"
   fit-margin-left="2"
   fit-margin-bottom="2"
   fit-margin-right="2" />
<path
   d="M 33.388208,4.7062157 H 29.342096 V 15.333415 h 4.046112 V 4.7062157 z"
   id="path2998"
   inkscape:connector-curvature="0"
   style="fill:#ffffff;fill-opacity:0.80000001" /><path
   d="m 29.344256,59.738911 h 4.046112 V 49.109119 h -4.046112 v 10.629792 z"
   id="path2996"
   inkscape:connector-curvature="0"
   style="fill:#ffffff;fill-opacity:0.80000001" /><path
   d="m 50.149592,30.198103 v 4.048704 h 10.6272 v -4.048704 h -10.6272 z"
   id="path2994"
   inkscape:connector-curvature="0"
   style="fill:#ffffff;fill-opacity:0.80000001" /><path
   d="m 41.742656,17.490607 1.430784,1.430784 7.514208,-7.514208 -1.433376,-1.430784 -7.511616,7.514208 z"
   id="path2992"
   inkscape:connector-curvature="0"
   style="fill:#ffffff;fill-opacity:0.80000001" /><path
   d="m 41.742656,46.954303 7.514208,7.514208 1.430784,-1.430784 -7.511616,-7.514208 -1.433376,1.430784 z"
   id="path2990"
   inkscape:connector-curvature="0"
   style="fill:#ffffff;fill-opacity:0.80000001" /><path
   d="m 21.592448,55.080871 h 5.194368 v -0.917568 -0.912384 h -5.194368 v -2.257632 h 5.601312 v -0.943488 -0.938304 h -7.822654 v 10.6272 H 27.44 v -0.94608 -0.943488 h -5.847552 v -2.768256 z"
   id="path2988"
   inkscape:connector-curvature="0"
   style="fill:#ffffff;fill-opacity:0.80000001" /><path
   d="m 21.83912,15.333415 v -4.494528 h 4.655232 V 9.921319 9.011528 H 21.83912 V 6.5931917 h 5.344704 v -0.94608 -0.940896 H 19.622962 V 15.333415 h 1.111966 1.104192 z"
   id="path3"
   inkscape:connector-curvature="0"
   style="fill:#ffffff;fill-opacity:0.80000001" />
<g
   transform="matrix(2.16,0,0,2.16,-69.709162,-48.174447)"
   id="g3134"
   style="fill:#ffffff;fill-opacity:0.80000001" /><g
   transform="matrix(2.16,0,0,2.16,-69.709162,-48.174447)"
   id="g3136"
   style="fill:#ffffff;fill-opacity:0.80000001" /><g
   transform="matrix(2.16,0,0,2.16,-69.709162,-48.174447)"
   id="g3138"
   style="fill:#ffffff;fill-opacity:0.80000001" /><g
   transform="matrix(2.16,0,0,2.16,-69.709162,-48.174447)"
   id="g3140"
   style="fill:#ffffff;fill-opacity:0.80000001" /><g
   transform="matrix(2.16,0,0,2.16,-69.709162,-48.174447)"
   id="g3142"
   style="fill:#ffffff;fill-opacity:0.80000001" /><g
   transform="matrix(2.16,0,0,2.16,-69.709162,-48.174447)"
   id="g3144"
   style="fill:#ffffff;fill-opacity:0.80000001" /><g
   transform="matrix(2.16,0,0,2.16,-69.709162,-48.174447)"
   id="g3146"
   style="fill:#ffffff;fill-opacity:0.80000001" /><g
   transform="matrix(2.16,0,0,2.16,-69.709162,-48.174447)"
   id="g3148"
   style="fill:#ffffff;fill-opacity:0.80000001" /><g
   transform="matrix(2.16,0,0,2.16,-69.709162,-48.174447)"
   id="g3150"
   style="fill:#ffffff;fill-opacity:0.80000001" /><g
   transform="matrix(2.16,0,0,2.16,-69.709162,-48.174447)"
   id="g3152"
   style="fill:#ffffff;fill-opacity:0.80000001" /><g
   transform="matrix(2.16,0,0,2.16,-69.709162,-48.174447)"
   id="g3154"
   style="fill:#ffffff;fill-opacity:0.80000001" /><g
   transform="matrix(2.16,0,0,2.16,-69.709162,-48.174447)"
   id="g3156"
   style="fill:#ffffff;fill-opacity:0.80000001" /><g
   transform="matrix(2.16,0,0,2.16,-69.709162,-48.174447)"
   id="g3158"
   style="fill:#ffffff;fill-opacity:0.80000001" /><g
   transform="matrix(2.16,0,0,2.16,-69.709162,-48.174447)"
   id="g3160"
   style="fill:#ffffff;fill-opacity:0.80000001" /><g
   transform="matrix(2.16,0,0,2.16,-69.709162,-48.174447)"
   id="g3162"
   style="fill:#ffffff;fill-opacity:0.80000001" /><path
   inkscape:connector-curvature="0"
   id="path3002"
   d="m 23.421153,43.061296 -0.05328,-0.0702 c -0.0648,-0.0864 -0.13068,-0.17172 -0.22068,-0.26172 -0.54648,-0.54756 -1.36188,-0.8622 -2.2374,-0.8622 -0.8748,0 -1.6902,0.31428 -2.23812,0.86256 -0.08928,0.08928 -0.1548,0.17424 -0.21528,0.25524 l -0.04788,0.06192 c -0.08172,0.10116 -0.39744,0.26172 -0.89928,0.26172 -0.50184,0 -0.81756,-0.15948 -0.88812,-0.24768 l -0.05328,-0.06948 c -0.06552,-0.0864 -0.13068,-0.17244 -0.22068,-0.26244 -0.5472,-0.54756 -1.36188,-0.8622 -2.23704,-0.8622 -0.87516,0 -1.69056,0.31428 -2.23812,0.86256 -0.08928,0.09 -0.15516,0.17424 -0.21564,0.25596 l -0.04716,0.06192 c -0.08136,0.10116 -0.39744,0.26172 -0.89928,0.26172 -0.50184,0 -0.81756,-0.1602 -0.88848,-0.24768 l -0.05364,-0.0702 c -0.04896,-0.06552 -0.12312,-0.16452 -0.22032,-0.26172 -0.54684,-0.54756 -1.36224,-0.8622 -2.2373998,-0.8622 -0.87516,0 -1.69056,0.31428 -2.23812,0.86256 -0.08928,0.08928 -0.15516,0.17424 -0.21564,0.25524 l -0.04716,0.06192 c -0.08136,0.10116 -0.39744,0.26172 -0.89928,0.26172 h -0.72 v 1.8 h 0.72 c 0.97164,0 1.8324,-0.34956 2.3137201,-0.9486 l 0.07488,-0.09756 c 0.01584,-0.02196 0.02988,-0.04284 0.04752,-0.0612 0.2052001,-0.20592 0.5749201,-0.33408 0.9640801,-0.33408 0.38916,0 0.7581596,0.1278 0.9626396,0.33192 0.01908,0.02052 0.03348,0.04212 0.05868,0.07668 l 0.07632,0.09828 c 0.4698,0.585 1.33056,0.93384 2.30256,0.93384 0.972,0 1.8324,-0.34884 2.31372,-0.94788 l 0.0792,-0.10404 c 0.0144,-0.01908 0.02772,-0.03852 0.0432,-0.05544 0.2052,-0.2052 0.57492,-0.33408 0.96408,-0.33408 0.38916,0 0.75816,0.1278 0.96264,0.33192 0.01692,0.01908 0.03024,0.03852 0.05832,0.07596 l 0.07668,0.09972 c 0.4698,0.585 1.3302,0.93384 2.3022,0.93384 0.97236,0 1.83312,-0.34956 2.3148,-0.9486 l 0.07452,-0.09756 c 0.01548,-0.02124 0.03024,-0.04284 0.04788,-0.0612 0.2052,-0.20592 0.57528,-0.33408 0.96408,-0.33408 0.38952,0 0.7578,0.1278 0.96264,0.33192 0.0198,0.02052 0.03384,0.04212 0.05904,0.07596 l 0.07596,0.099 c 0.47052,0.585 1.33092,0.93384 2.30256,0.93384 h 0.72 v -1.8 h -0.72 c -0.50436,0.0014 -0.81936,-0.15804 -0.89064,-0.24588 z m 0,-2.80332 -0.05256,-0.06876 c -0.06264,-0.08316 -0.13068,-0.17244 -0.2214,-0.26244 -0.54648,-0.54756 -1.36188,-0.86184 -2.2374,-0.86184 -0.8748,0 -1.6902,0.31428 -2.23668,0.86148 -0.09072,0.09072 -0.15948,0.17964 -0.21744,0.25668 l -0.04716,0.06264 c -0.08172,0.10044 -0.39744,0.26136 -0.89928,0.26136 -0.50184,0 -0.81756,-0.1602 -0.88812,-0.24768 l -0.05256,-0.06876 c -0.06264,-0.08316 -0.13068,-0.17244 -0.2214,-0.26244 -0.5472,-0.54756 -1.36188,-0.86184 -2.23704,-0.86184 -0.87516,0 -1.69056,0.31428 -2.23704,0.86148 -0.09072,0.09072 -0.15912,0.17964 -0.21672,0.25668 l -0.04716,0.06264 c -0.08136,0.10044 -0.39744,0.26136 -0.89928,0.26136 -0.50184,0 -0.81756,-0.1602 -0.88848,-0.24768 l -0.05292,-0.0702 c -0.06228,-0.08352 -0.13068,-0.17244 -0.22104,-0.2628 -0.54684,-0.54756 -1.36224,-0.86184 -2.2373998,-0.86184 -0.87516,0 -1.69056,0.31428 -2.23704,0.86148 -0.09072,0.09072 -0.15912,0.17964 -0.21672,0.25668 l -0.04716,0.06228 c -0.08136,0.1008 -0.39744,0.26172 -0.89928,0.26172 h -0.72 v 1.8 h 0.72 c 0.97164,0 1.8324,-0.34956 2.3025601,-0.93528 0.027,-0.03312 0.05256,-0.06768 0.0846,-0.11052 0.01584,-0.02196 0.0306,-0.04356 0.0486,-0.06264 0.20556,-0.20592 0.57528,-0.33372 0.9640801,-0.33372 0.3888,0 0.7581596,0.12708 0.9629996,0.333 0.01908,0.0198 0.03384,0.04212 0.05616,0.07164 0.02592,0.03528 0.0522,0.0702 0.07848,0.1026 0.4698,0.585 1.33056,0.93456 2.30256,0.93456 0.972,0 1.8324,-0.34956 2.30256,-0.93528 0.027,-0.03384 0.05256,-0.06768 0.0846,-0.11052 0.01584,-0.02268 0.0306,-0.04428 0.0486,-0.06264 0.20556,-0.20592 0.57528,-0.33444 0.96408,-0.33444 0.38916,0 0.75816,0.1278 0.96264,0.333 0.01908,0.0198 0.03384,0.04212 0.05616,0.07236 0.02592,0.03528 0.0522,0.06948 0.07884,0.10188 0.4698,0.585 1.3302,0.93456 2.3022,0.93456 0.97236,0 1.83312,-0.34956 2.30256,-0.93456 0.02736,-0.03384 0.05256,-0.06768 0.08496,-0.11124 0.01548,-0.02196 0.03024,-0.04356 0.0486,-0.06264 0.2052,-0.20592 0.57528,-0.33372 0.96408,-0.33372 0.3888,0 0.7578,0.12708 0.96264,0.333 0.0198,0.0198 0.03456,0.04212 0.05616,0.07164 0.02592,0.03528 0.0522,0.0702 0.07884,0.1026 0.47052,0.585 1.3302,0.93384 2.30256,0.93384 h 0.72 v -1.8 h -0.72 c -0.50256,0 -0.81756,-0.1602 -0.88884,-0.24768 z m 0.88884,-2.55528 c -0.50256,0 -0.81756,-0.1602 -0.88812,-0.2466 l -0.05328,-0.0702 c -0.06192,-0.08244 -0.12924,-0.171 -0.2214,-0.26316 -0.54648,-0.54756 -1.36188,-0.86148 -2.2374,-0.86148 -0.8748,0 -1.6902,0.31428 -2.23884,0.86292 -0.09072,0.09108 -0.15804,0.17928 -0.216,0.25596 l -0.04644,0.0612 c -0.08172,0.10116 -0.39744,0.26136 -0.89928,0.26136 -0.50184,0 -0.81756,-0.1602 -0.8874,-0.2466 l -0.05328,-0.0702 c -0.06192,-0.08244 -0.12924,-0.171 -0.2214,-0.26316 -0.5472,-0.54756 -1.36188,-0.86148 -2.23704,-0.86148 -0.87516,0 -1.69056,0.31428 -2.2392,0.86256 -0.09036,0.09108 -0.15768,0.17928 -0.21528,0.25596 l -0.04644,0.0612 c -0.08136,0.10116 -0.39744,0.26136 -0.89928,0.26136 -0.50184,0 -0.81756,-0.1602 -0.88776,-0.2466 l -0.05328,-0.0702 c -0.06192,-0.08244 -0.12924,-0.171 -0.2214,-0.26316 -0.54684,-0.54756 -1.36224,-0.86148 -2.2373998,-0.86148 -0.87516,0 -1.69056,0.31428 -2.23884,0.86256 -0.09072,0.09108 -0.15804,0.17928 -0.21564,0.25596 l -0.04644,0.0612 c -0.08136,0.10116 -0.39744,0.26136 -0.89928,0.26136 h -0.72 v 1.8 h 0.72 c 0.97164,0 1.83276,-0.3492 2.3137201,-0.94824 l 0.07668,-0.10044 c 0.01548,-0.02052 0.02952,-0.04212 0.04572,-0.0594 0.2052,-0.20556 0.57492,-0.33336 0.96408,-0.33336 0.38916,0 0.7581597,0.12744 0.9619197,0.3312 0.01836,0.01908 0.0324,0.04104 0.0594,0.07668 l 0.07632,0.09936 c 0.4698,0.585 1.33056,0.93384 2.30256,0.93384 0.972,0 1.83276,-0.3492 2.31372,-0.94824 l 0.07668,-0.10044 c 0.01548,-0.02052 0.02952,-0.04212 0.04572,-0.0594 0.2052,-0.20556 0.57492,-0.33336 0.96408,-0.33336 0.38916,0 0.75816,0.12744 0.96192,0.3312 0.01836,0.01908 0.0324,0.04104 0.05904,0.07668 l 0.07668,0.09936 c 0.4698,0.585 1.3302,0.93384 2.3022,0.93384 0.97236,0 1.83384,-0.3492 2.3148,-0.94824 l 0.07668,-0.10044 c 0.01548,-0.02052 0.02952,-0.04212 0.04572,-0.0594 0.2052,-0.20556 0.57528,-0.33336 0.96408,-0.33336 0.38952,0 0.7578,0.12744 0.96192,0.3312 0.01836,0.01908 0.0324,0.04104 0.05976,0.07668 l 0.07596,0.09936 c 0.47052,0.585 1.3302,0.93384 2.30256,0.93384 h 0.72 v -1.8 h -0.72144 v 0.0018 l -3.6e-4,0 z"
   style="fill:#ffffff;fill-opacity:0.80000001" /><path
   id="path3000"
   d="m 29.888037,26.686311 c 0.467004,-0.09693 0.954211,-0.158201 1.450356,-0.160473 0.497352,0.0011 0.981587,0.05937 1.451333,0.159476 L 31.335117,8.394586 29.888037,26.686311 z m -3.747494,5.812835 c 0.08832,2.845986 2.469408,5.086191 5.318856,4.996656 2.849448,-0.08953 5.089652,-2.470616 5.0002,-5.314267 -0.08841,-2.851782 -2.464824,-5.089733 -5.317812,-5.004787 -2.848319,0.08721 -5.086192,2.469409 -5.001244,5.322398 z"
   inkscape:connector-curvature="0"
   inkscape:transform-center-y="-9.3499194"
   style="fill:#ffffff;fill-opacity:0.80000001"
   inkscape:transform-center-x="-5.4080215e-05" /></svg>